<svg width="48" height="48" viewBox="0 0 48 48" fill="none" xmlns="http://www.w3.org/2000/svg">
<path d="M24 4C17.373 4 12 9.373 12 16C12 20.025 14.214 23.538 17.5 25.5V32C17.5 33.105 18.395 34 19.5 34H28.5C29.605 34 30.5 33.105 30.5 32V25.5C33.786 23.538 36 20.025 36 16C36 9.373 30.627 4 24 4Z" stroke="black" stroke-width="2" stroke-linecap="round" stroke-linejoin="round"/>
<path d="M19.5 38H28.5" stroke="black" stroke-width="2" stroke-linecap="round" stroke-linejoin="round"/>
<path d="M19.5 42H28.5" stroke="black" stroke-width="2" stroke-linecap="round" stroke-linejoin="round"/>
<path d="M24 4V2" stroke="black" stroke-width="2" stroke-linecap="round" stroke-linejoin="round"/>
<path d="M38 16H40" stroke="black" stroke-width="2" stroke-linecap="round" stroke-linejoin="round"/>
<path d="M8 16H10" stroke="black" stroke-width="2" stroke-linecap="round" stroke-linejoin="round"/>
<path d="M35.314 7.686L36.728 6.272" stroke="black" stroke-width="2" stroke-linecap="round" stroke-linejoin="round"/>
<path d="M11.272 6.272L12.686 7.686" stroke="black" stroke-width="2" stroke-linecap="round" stroke-linejoin="round"/>
</svg>